<svg xmlns="http://www.w3.org/2000/svg" width="160" height="23" fill="none"><g clip-path="url(#a)"><path fill="#fff" d="M7.54 1.078h7.234v1.2h-2.402v17.008h-2.154V2.278H7.539v-1.2ZM25.087 3.581c.038 0 .058.11.058.332 0 .22-.005.44-.015.662v.32c-.766 0-1.446.11-2.038.331-.582.214-1.155.604-1.717 1.17v12.89h-2.17V3.768h2.17v1.727c.252-.607.693-1.076 1.324-1.407.64-.338 1.436-.507 2.388-.507ZM29.707 3.768h2.184v15.518h-2.184V3.768Zm0-2.918h2.17v1.49h-2.17V.85ZM44.416 8.31c0-1.215-.073-1.97-.218-2.266a2.914 2.914 0 0 0-.495-.776c-.194-.214-.515-.321-.961-.321-.447 0-.776.02-.99.062-.524.104-.907.404-1.15.9-.243.49-.364 1.297-.364 2.421v6.166c0 1.317.146 2.248.437 2.793.3.538.864.807 1.688.807.825 0 1.374-.269 1.645-.807.272-.538.408-1.486.408-2.845V8.31Zm-4.178-3.353c.514-.869 1.48-1.303 2.897-1.303.99 0 1.732.234 2.227.703.505.462.835 1.062.99 1.8.155.732.233 1.614.233 2.649v5.638c0 1.952-.359 3.28-1.077 3.983-.718.697-1.699 1.045-2.94 1.045-.496 0-.962-.124-1.398-.373-.427-.255-.738-.565-.932-.93v3.858h-2.169V3.767h2.169v1.19ZM61.038 3.954l.014.424c0 .745.544 2.07 1.63 3.973.748-.662 1.32-1.31 1.718-1.945a3.91 3.91 0 0 0 .612-2.142c0-.786-.121-1.345-.364-1.676-.243-.338-.815-.507-1.718-.507-1.174 0-1.795.48-1.863 1.438-.01.152-.02.252-.03.3v.135Zm6.26 11.556c1.377 2.055 2.212 3.314 2.503 3.776h-1.805c-.252-.428-.766-1.207-1.543-2.338-.485.78-.985 1.338-1.5 1.676a4.734 4.734 0 0 1-1.542.682 7.35 7.35 0 0 1-1.747.187c-1.32 0-2.388-.324-3.203-.973-.815-.648-1.223-1.538-1.223-2.669s.16-1.969.48-2.514c.33-.545.641-1.024.932-1.438.291-.414 1.194-1.227 2.708-2.441-1.62-2.58-2.431-4.28-2.431-5.1 0-2.339 1.388-3.508 4.163-3.508 1.621 0 2.684.304 3.188.91.515.608.772 1.456.772 2.546 0 1.09-.34 2.041-1.02 2.855-.669.807-1.513 1.659-2.532 2.555.689 1.131 1.616 2.552 2.78 4.263.786-1.173 1.65-2.152 2.592-2.938l1.004 1.107c-.873.772-1.732 1.893-2.577 3.362Zm-1.922-.114a231.776 231.776 0 0 1-3.13-4.563c-.815.773-1.485 1.556-2.009 2.349-.524.793-.79 1.7-.8 2.72 0 1.532.83 2.298 2.489 2.298.912 0 1.679-.38 2.3-1.139.31-.393.694-.948 1.15-1.665ZM90.28 1.078h2.432v18.208h-1.965v-7.8l.334-7.336-3.654 14.743H85.36L81.575 4.15l.335 7.335v7.8h-1.98V1.079h2.431l4.033 15.29 3.887-15.29ZM98.89 3.768h2.184v15.518H98.89V3.768Zm0-2.918h2.169v1.49H98.89V.85ZM109.421 5.288c.194-.462.621-.862 1.281-1.2.67-.344 1.456-.517 2.358-.517.903 0 1.645.266 2.228.797.582.53.873 1.327.873 2.39v12.528h-2.169V6.633c0-.6-.194-1.03-.582-1.293-.379-.269-.888-.403-1.529-.403-1.64 0-2.46.576-2.46 1.727v12.622h-2.169V3.768h2.169v1.52ZM128.089 8.558c0-1.332-.145-2.263-.436-2.794-.282-.538-.835-.807-1.66-.807s-1.378.276-1.659.828c-.282.545-.423 1.493-.423 2.845v6.145c0 1.42.156 2.331.466 2.731.32.4.791.6 1.412.6.621 0 1.063-.079 1.325-.238.272-.165.5-.438.684-.817.194-.386.291-1.138.291-2.255V8.558ZM128.075.84h2.183v18.446h-2.183v-1.18c-.505.862-1.471 1.293-2.897 1.293-1.621-.006-2.65-.693-3.086-2.058-.243-.752-.364-1.762-.364-3.031V8.858c0-2.083.349-3.483 1.048-4.2.708-.718 1.703-1.077 2.984-1.077.495 0 .951.128 1.369.383.427.249.742.552.946.91V.84Z"/><path fill="#EFC224" fill-rule="evenodd" d="m153.384 5.817 6.325 4.494c.388.276.388.723 0 1l-6.325 4.494c-.388.276-1.017.276-1.405 0-.388-.276-.388-.723 0-1l4.628-3.288H139.13v-1.412h17.477l-4.628-3.29c-.388-.275-.388-.722 0-.998s1.017-.276 1.405 0Z" clip-rule="evenodd"/><path fill="#EFC224" d="M3.975 10.105H0v1.412h3.975v-1.412Z"/></g><defs><clipPath id="a"><path fill="#fff" d="M0 .84h160v21.735H0z"/></clipPath></defs></svg>