<svg
        xmlns="http://www.w3.org/2000/svg"
        width="31"
        height="31"
        fill="none"
>
    <path
            fill="#E3B748"
            d="m29.898 26.596-6.561-9.667a2.343 2.343 0 0 0-.617-.614l-.54-.384c-.618-.46-.618-1.304 0-1.765l.462-.306c.232-.154.463-.384.618-.614l6.715-9.515c.54-.844.618-1.918 0-2.685-.772-.998-2.161-1.228-3.164-.537L17.085 7.03a2.342 2.342 0 0 0-.618.613l-.386.538c-.463.613-1.312.613-1.775 0l-.309-.46a2.344 2.344 0 0 0-.617-.615L3.808.432c-.85-.537-1.93-.614-2.702 0C.103 1.2-.129 2.58.566 3.578l6.561 9.668c.155.23.386.46.618.614l.54.383c.618.46.618 1.304 0 1.765l-.463.307a2.343 2.343 0 0 0-.618.614l-6.792 9.59c-.618.921-.54 2.149.231 2.916.772.768 2.007.92 2.933.307l9.726-6.522c.232-.153.463-.383.618-.614l.386-.537c.463-.613 1.312-.613 1.775 0l.309.46c.154.23.386.461.617.614l9.726 6.753c.927.613 2.162.537 2.934-.23.771-.921.849-2.149.231-3.07Z"
    />
</svg>